<svg width="60" height="26" viewBox="0 0 60 26" fill="none" xmlns="http://www.w3.org/2000/svg">
<path d="M37.596 19V9.2H41.264C42.0947 9.2 42.8087 9.33533 43.406 9.606C44.0033 9.86733 44.4607 10.25 44.778 10.754C45.1047 11.2487 45.268 11.8507 45.268 12.56C45.268 13.2507 45.1047 13.848 44.778 14.352C44.4607 14.8467 44.0033 15.2293 43.406 15.5C42.8087 15.7707 42.0947 15.906 41.264 15.906H38.17L38.632 15.416V19H37.596ZM38.632 15.5L38.17 14.996H41.236C42.216 14.996 42.958 14.786 43.462 14.366C43.9753 13.9367 44.232 13.3347 44.232 12.56C44.232 11.776 43.9753 11.1693 43.462 10.74C42.958 10.3107 42.216 10.096 41.236 10.096H38.17L38.632 9.606V15.5ZM47.5081 19V9.2H48.3621L52.8421 16.844H52.3941L56.8321 9.2H57.6861V19H56.6921V10.754H56.9301L52.8421 17.754H52.3521L48.2361 10.754H48.5021V19H47.5081Z" fill="#6C757D"/>
<rect width="28" height="26" rx="4" fill="#249531"/>
<path d="M4.024 17L7.864 8.6H8.74L12.58 17H11.644L8.116 9.116H8.476L4.948 17H4.024ZM5.536 14.756L5.8 14.036H10.684L10.948 14.756H5.536ZM13.9696 17V8.6H14.7016L18.5416 15.152H18.1576L21.9616 8.6H22.6936V17H21.8416V9.932H22.0456L18.5416 15.932H18.1216L14.5936 9.932H14.8216V17H13.9696Z" fill="white"/>
</svg>
