<svg width="36" height="36" viewBox="0 0 36 36" fill="none" xmlns="http://www.w3.org/2000/svg">
<rect width="36" height="36" rx="6" transform="matrix(-1 0 0 1 36 0)" fill="#E3F1E8"/>
<path d="M19.9604 10.0833C23.0446 10.4258 25.4813 12.8591 25.8271 15.9433" stroke="#221E20" stroke-width="1.5" stroke-linecap="round" stroke-linejoin="round"/>
<path d="M19.9604 13.0356C21.4363 13.3223 22.5896 14.4765 22.8771 15.9523" stroke="#221E20" stroke-width="1.5" stroke-linecap="round" stroke-linejoin="round"/>
<path fill-rule="evenodd" clip-rule="evenodd" d="M17.1928 18.3936C20.5169 21.7169 21.271 17.8722 23.3875 19.9873C25.428 22.0272 26.6017 22.4359 24.0155 25.0205C23.6917 25.2808 21.6342 28.4118 14.4036 21.183C7.172 13.9533 10.3011 11.8936 10.5615 11.5699C13.153 8.97812 13.5555 10.1577 15.596 12.1977C17.7116 14.3137 13.8686 15.0703 17.1928 18.3936Z" stroke="#221E20" stroke-width="1.5" stroke-linecap="round" stroke-linejoin="round"/>
</svg>
