<svg width="24" height="24" viewBox="0 0 24 24" fill="none" xmlns="http://www.w3.org/2000/svg">
<rect width="24" height="24" rx="4" fill="#E3F1E8"/>
<path d="M8.10059 11.3001C8.10059 9.32061 8.10059 8.33017 8.71585 7.7156C9.33041 7.10034 10.3209 7.10034 12.3003 7.10034H14.4002C16.3797 7.10034 17.3701 7.10034 17.9847 7.7156C18.6 8.33017 18.6 9.32061 18.6 11.3001V14.7999C18.6 16.7794 18.6 17.7698 17.9847 18.3844C17.3701 18.9996 16.3797 18.9996 14.4002 18.9996H12.3003C10.3209 18.9996 9.33041 18.9996 8.71585 18.3844C8.10059 17.7698 8.10059 16.7794 8.10059 14.7999V11.3001Z" stroke="#249531" stroke-width="1.1375"/>
<path d="M8.09987 16.8993C7.54295 16.8993 7.00884 16.678 6.61504 16.2842C6.22124 15.8904 6 15.3563 6 14.7994V10.5997C6 7.96012 6 6.64 6.82035 5.82035C7.64 5 8.96012 5 11.5997 5H14.3995C14.9564 5 15.4905 5.22124 15.8843 5.61504C16.2781 6.00884 16.4994 6.54295 16.4994 7.09987" stroke="#249531" stroke-width="1.1375"/>
</svg>
