<svg width="40" height="40" viewBox="0 0 40 40" fill="none" xmlns="http://www.w3.org/2000/svg">
<rect width="40" height="40" rx="20" fill="#F7E5E5"/>
<path d="M26.1042 17.8896C26.1042 17.8896 25.6517 23.5021 25.3892 25.8663C25.2642 26.9955 24.5667 27.6571 23.4242 27.678C21.25 27.7171 19.0733 27.7196 16.9 27.6738C15.8008 27.6513 15.115 26.9813 14.9925 25.8721C14.7283 23.4871 14.2783 17.8896 14.2783 17.8896" stroke="#D61919" stroke-width="1.5" stroke-linecap="round" stroke-linejoin="round"/>
<path d="M27.2567 15.1999H13.125" stroke="#D61919" stroke-width="1.5" stroke-linecap="round" stroke-linejoin="round"/>
<path d="M24.5335 15.1995C23.8793 15.1995 23.316 14.737 23.1877 14.0962L22.9852 13.0828C22.8602 12.6153 22.4368 12.292 21.9543 12.292H18.4268C17.9443 12.292 17.521 12.6153 17.396 13.0828L17.1935 14.0962C17.0652 14.737 16.5018 15.1995 15.8477 15.1995" stroke="#D61919" stroke-width="1.5" stroke-linecap="round" stroke-linejoin="round"/>
</svg>
