<svg width="24" height="24" viewBox="0 0 24 24" fill="none" xmlns="http://www.w3.org/2000/svg">
<g clip-path="url(#clip0_178_7781)">
<path d="M11.625 0C5.20312 0 0 5.20312 0 11.625C0 18.0469 5.20312 23.25 11.625 23.25C18.0469 23.25 23.25 18.0469 23.25 11.625C23.25 5.20312 18.0469 0 11.625 0ZM15.375 7.875C16.2047 7.875 16.875 8.54531 16.875 9.375C16.875 10.2047 16.2047 10.875 15.375 10.875C14.5453 10.875 13.875 10.2047 13.875 9.375C13.875 8.54531 14.5453 7.875 15.375 7.875ZM7.875 7.875C8.70469 7.875 9.375 8.54531 9.375 9.375C9.375 10.2047 8.70469 10.875 7.875 10.875C7.04531 10.875 6.375 10.2047 6.375 9.375C6.375 8.54531 7.04531 7.875 7.875 7.875ZM17.0062 15.8531C15.6703 17.4563 13.7109 18.375 11.625 18.375C9.53906 18.375 7.57969 17.4563 6.24375 15.8531C5.60625 15.0891 6.75938 14.1328 7.39688 14.8922C8.44688 16.1531 9.98438 16.8703 11.625 16.8703C13.2656 16.8703 14.8031 16.1484 15.8531 14.8922C16.4813 14.1328 17.6391 15.0891 17.0062 15.8531Z" fill="#6C757D"/>
</g>
<defs>
<clipPath id="clip0_178_7781">
<rect width="24" height="24" fill="white"/>
</clipPath>
</defs>
</svg>
