<svg width="20" height="14" viewBox="0 0 20 14" fill="none" xmlns="http://www.w3.org/2000/svg">
<g clip-path="url(#clip0_541_3209)">
<path d="M4.90039 0.368652H14.7004V13.8437H4.90039V0.368652Z" fill="#E6E7E8"/>
<path d="M3.0625 0.368652C1.03298 0.368652 0 1.87693 0 3.7374V10.4749C0 12.3354 1.03298 13.8437 3.0625 13.8437H4.9V0.368652H3.0625ZM16.5375 0.368652H14.7V13.8437H16.5375C18.567 13.8437 19.6 12.3354 19.6 10.4749V3.7374C19.6 1.87693 18.567 0.368652 16.5375 0.368652Z" fill="#EC1C24"/>
<path fill-rule="evenodd" clip-rule="evenodd" d="M13.554 6.99603C13.414 6.93264 13.3904 6.88792 13.4321 6.73327C13.5359 6.34647 13.6428 5.96121 13.7478 5.57503C13.7567 5.54349 13.7647 5.51102 13.7766 5.46478C13.6468 5.49081 13.5255 5.51409 13.4042 5.54042C13.1589 5.59249 12.9151 5.64547 12.6704 5.69722C12.5106 5.73061 12.4374 5.68589 12.3921 5.52787C12.3495 5.37842 12.3075 5.22866 12.2392 5.05777C12.2236 5.0835 12.2123 5.11321 12.1924 5.13495C11.9122 5.45131 11.6304 5.76674 11.3484 6.0831C11.2611 6.17926 11.164 6.22122 11.0954 6.18324C10.9946 6.12628 10.9983 6.02552 11.0149 5.93151C11.0893 5.52082 11.1665 5.11106 11.243 4.70038C11.2991 4.4024 11.3551 4.10595 11.4127 3.79541C11.3836 3.80644 11.364 3.81195 11.3465 3.82052C11.1879 3.9026 11.0311 3.98621 10.8721 4.06644C10.6774 4.16414 10.5794 4.13198 10.4777 3.94364C10.2624 3.54459 10.0489 3.14494 9.83426 2.74559C9.82324 2.72599 9.81589 2.70639 9.79905 2.68127L9.76383 2.74559C9.54976 3.14494 9.33599 3.54459 9.12101 3.94364C9.01903 4.13198 8.92072 4.16444 8.72594 4.06644C8.567 3.98621 8.4102 3.9026 8.25156 3.82052C8.23411 3.81195 8.21451 3.80644 8.18541 3.79541C8.24299 4.10595 8.29903 4.4024 8.35508 4.70038C8.43164 5.10984 8.50912 5.5196 8.58293 5.93151C8.60008 6.02583 8.60344 6.12659 8.50269 6.18324C8.43378 6.22122 8.33701 6.17926 8.25003 6.0831C7.96767 5.76674 7.68592 5.45131 7.4057 5.13495C7.38579 5.11321 7.37416 5.0835 7.35884 5.05777C7.29055 5.22897 7.24859 5.37842 7.20603 5.52787C7.1607 5.68589 7.08689 5.73061 6.92764 5.69722C6.68295 5.64547 6.43887 5.59249 6.19387 5.54042C6.07259 5.51409 5.95132 5.49081 5.82147 5.46478C5.83341 5.51102 5.84107 5.54379 5.85026 5.57503C5.9553 5.96121 6.06218 6.34678 6.166 6.73327C6.20765 6.88823 6.18407 6.93264 6.04411 6.99603C5.91457 7.05483 5.78533 7.117 5.64844 7.18101C5.67294 7.20305 5.68672 7.21622 5.70203 7.22878C6.02788 7.49399 6.35373 7.75829 6.68019 8.0235C6.99594 8.28014 7.31046 8.53647 7.62651 8.79219C7.73706 8.88131 7.77351 8.98972 7.72788 9.12508C7.70215 9.2047 7.67918 9.28433 7.65529 9.36426C7.62651 9.45828 7.59833 9.55291 7.56648 9.66041C7.87978 9.616 8.17561 9.57465 8.47359 9.53331C8.82303 9.48523 9.17215 9.43592 9.5225 9.39182C9.64255 9.37621 9.73167 9.46777 9.72677 9.58691C9.70043 10.2187 9.63949 10.932 9.6352 11.5304H9.96289C9.9586 10.932 9.89796 10.219 9.87163 9.58691C9.86611 9.46777 9.95554 9.37621 10.0756 9.39182C10.4259 9.43592 10.7751 9.48523 11.1245 9.53331C11.4225 9.57465 11.7183 9.6163 12.0316 9.66041C11.9998 9.55291 11.9716 9.45828 11.9428 9.36426C11.9189 9.28402 11.8959 9.2047 11.8702 9.12508C11.8246 8.98972 11.861 8.88131 11.9716 8.79219C12.2879 8.53647 12.6022 8.28014 12.9179 8.0235C13.2444 7.75859 13.5702 7.49399 13.8961 7.22878C13.9114 7.21622 13.9252 7.20305 13.9497 7.18101C13.8125 7.11669 13.6838 7.05483 13.554 6.99603Z" fill="#EC1C24"/>
</g>
<defs>
<clipPath id="clip0_541_3209">
<rect width="20" height="14" fill="white"/>
</clipPath>
</defs>
</svg>
