<svg width="18" height="17" viewBox="0 0 18 17" fill="none" xmlns="http://www.w3.org/2000/svg">
<path opacity="0.5" d="M17.7782 6.40206C17.7267 6.24406 17.6321 6.10359 17.5051 5.99652C17.378 5.88945 17.2235 5.82004 17.0591 5.79613L11.9809 5.05833L9.71042 0.456844C9.63304 0.313787 9.51717 0.195241 9.37591 0.114614C9.23466 0.0339877 9.07366 -0.00550047 8.91113 0.000616747V14.5072L13.4529 16.8944C13.6001 16.9718 13.7659 17.0064 13.9318 16.9945C14.0976 16.9825 14.2568 16.9244 14.3913 16.8266C14.5258 16.7289 14.6303 16.5955 14.6929 16.4415C14.7556 16.2875 14.7739 16.1191 14.7459 15.9552L13.8788 10.8975L17.5527 7.31541C17.6718 7.19935 17.756 7.05231 17.7958 6.89091C17.8356 6.72951 17.8295 6.56018 17.7782 6.40206Z" fill="#FFD12D"/>
<path d="M8.11167 0.460749L5.84122 5.06223L0.763014 5.80004C0.598434 5.82394 0.443826 5.89342 0.316682 6.00062C0.189538 6.10783 0.0949317 6.24847 0.0435664 6.40665C-0.00779894 6.56482 -0.0138734 6.73421 0.0260301 6.89566C0.0659337 7.05711 0.150223 7.20417 0.269361 7.3202L3.94324 10.9014L3.07623 15.9591C3.04827 16.1229 3.06665 16.2912 3.12927 16.445C3.1919 16.5989 3.29629 16.7322 3.43067 16.8299C3.56504 16.9275 3.72403 16.9857 3.88971 16.9978C4.05539 17.0099 4.22115 16.9754 4.36828 16.8983L8.91096 14.5102V0.0196698C8.75079 0.0168844 8.5927 0.0561481 8.45245 0.133544C8.3122 0.210939 8.1947 0.32376 8.11167 0.460749Z" fill="#FFD12D"/>
</svg>
