<svg width="24" height="24" viewBox="0 0 24 24" fill="none" xmlns="http://www.w3.org/2000/svg">
<mask id="mask0_41_34744" style="mask-type:alpha" maskUnits="userSpaceOnUse" x="2" y="2" width="20" height="20">
<rect x="2" y="2" width="20" height="20" fill="#D9D9D9"/>
</mask>
<g mask="url(#mask0_41_34744)">
<path d="M11.1667 20.3333V19.5C9.43056 19.3055 7.94097 18.5868 6.69792 17.3437C5.45486 16.1007 4.73611 14.6111 4.54167 12.875H3.70833C3.47222 12.875 3.27431 12.7951 3.11458 12.6354C2.95486 12.4757 2.875 12.2777 2.875 12.0416C2.875 11.8055 2.95486 11.6076 3.11458 11.4479C3.27431 11.2882 3.47222 11.2083 3.70833 11.2083H4.54167C4.73611 9.47218 5.45486 7.9826 6.69792 6.73954C7.94097 5.49649 9.43056 4.77774 11.1667 4.58329V3.74996C11.1667 3.51385 11.2465 3.31593 11.4063 3.15621C11.566 2.99649 11.7639 2.91663 12 2.91663C12.2361 2.91663 12.434 2.99649 12.5938 3.15621C12.7535 3.31593 12.8333 3.51385 12.8333 3.74996V4.58329C14.5694 4.77774 16.059 5.49649 17.3021 6.73954C18.5451 7.9826 19.2639 9.47218 19.4583 11.2083H20.2917C20.5278 11.2083 20.7257 11.2882 20.8854 11.4479C21.0451 11.6076 21.125 11.8055 21.125 12.0416C21.125 12.2777 21.0451 12.4757 20.8854 12.6354C20.7257 12.7951 20.5278 12.875 20.2917 12.875H19.4583C19.2639 14.6111 18.5451 16.1007 17.3021 17.3437C16.059 18.5868 14.5694 19.3055 12.8333 19.5V20.3333C12.8333 20.5694 12.7535 20.7673 12.5938 20.927C12.434 21.0868 12.2361 21.1666 12 21.1666C11.7639 21.1666 11.566 21.0868 11.4063 20.927C11.2465 20.7673 11.1667 20.5694 11.1667 20.3333ZM12 17.875C13.6111 17.875 14.9861 17.3055 16.125 16.1666C17.2639 15.0277 17.8333 13.6527 17.8333 12.0416C17.8333 10.4305 17.2639 9.05552 16.125 7.91663C14.9861 6.77774 13.6111 6.20829 12 6.20829C10.3889 6.20829 9.01389 6.77774 7.875 7.91663C6.73611 9.05552 6.16667 10.4305 6.16667 12.0416C6.16667 13.6527 6.73611 15.0277 7.875 16.1666C9.01389 17.3055 10.3889 17.875 12 17.875Z" fill="#6C757D"/>
</g>
</svg>
