<svg width="20" height="20" viewBox="0 0 20 20" fill="none" xmlns="http://www.w3.org/2000/svg">
<mask id="mask0_109_633" style="mask-type:alpha" maskUnits="userSpaceOnUse" x="0" y="0" width="20" height="20">
<rect width="20" height="20" fill="#D9D9D9"/>
</mask>
<g mask="url(#mask0_109_633)">
<path d="M9.16667 18.3333V17.5C7.43056 17.3055 5.94097 16.5868 4.69792 15.3437C3.45486 14.1007 2.73611 12.6111 2.54167 10.875H1.70833C1.47222 10.875 1.27431 10.7951 1.11458 10.6354C0.954861 10.4757 0.875 10.2777 0.875 10.0416C0.875 9.80552 0.954861 9.6076 1.11458 9.44788C1.27431 9.28815 1.47222 9.20829 1.70833 9.20829H2.54167C2.73611 7.47218 3.45486 5.9826 4.69792 4.73954C5.94097 3.49649 7.43056 2.77774 9.16667 2.58329V1.74996C9.16667 1.51385 9.24653 1.31593 9.40625 1.15621C9.56597 0.996487 9.76389 0.916626 10 0.916626C10.2361 0.916626 10.434 0.996487 10.5938 1.15621C10.7535 1.31593 10.8333 1.51385 10.8333 1.74996V2.58329C12.5694 2.77774 14.059 3.49649 15.3021 4.73954C16.5451 5.9826 17.2639 7.47218 17.4583 9.20829H18.2917C18.5278 9.20829 18.7257 9.28815 18.8854 9.44788C19.0451 9.6076 19.125 9.80552 19.125 10.0416C19.125 10.2777 19.0451 10.4757 18.8854 10.6354C18.7257 10.7951 18.5278 10.875 18.2917 10.875H17.4583C17.2639 12.6111 16.5451 14.1007 15.3021 15.3437C14.059 16.5868 12.5694 17.3055 10.8333 17.5V18.3333C10.8333 18.5694 10.7535 18.7673 10.5938 18.927C10.434 19.0868 10.2361 19.1666 10 19.1666C9.76389 19.1666 9.56597 19.0868 9.40625 18.927C9.24653 18.7673 9.16667 18.5694 9.16667 18.3333ZM10 15.875C11.6111 15.875 12.9861 15.3055 14.125 14.1666C15.2639 13.0277 15.8333 11.6527 15.8333 10.0416C15.8333 8.43051 15.2639 7.05552 14.125 5.91663C12.9861 4.77774 11.6111 4.20829 10 4.20829C8.38889 4.20829 7.01389 4.77774 5.875 5.91663C4.73611 7.05552 4.16667 8.43051 4.16667 10.0416C4.16667 11.6527 4.73611 13.0277 5.875 14.1666C7.01389 15.3055 8.38889 15.875 10 15.875Z" fill="#249531"/>
</g>
</svg>
