<svg width="100" height="56" viewBox="0 0 100 56" fill="none" xmlns="http://www.w3.org/2000/svg">
<rect width="100" height="56" rx="7" fill="#EBEBEB"/>
<g clip-path="url(#clip0_166_1244)">
<path d="M39.0808 40.8708V39.1499C39.0808 38.4901 38.6791 38.06 37.9907 38.06C37.6466 38.06 37.2737 38.1747 37.0155 38.5476C36.8148 38.2321 36.5281 38.06 36.0978 38.06C35.8109 38.06 35.5243 38.146 35.2947 38.4615V38.1174H34.6924V40.8708H35.2947V39.3506C35.2947 38.8631 35.5529 38.6336 35.9545 38.6336C36.3559 38.6336 36.5568 38.8918 36.5568 39.3506V40.8708H37.1591V39.3506C37.1591 38.8631 37.4458 38.6336 37.8187 38.6336C38.2203 38.6336 38.421 38.8918 38.421 39.3506V40.8708H39.0808ZM48.0006 38.1174H47.0255V37.2856H46.4232V38.1174H45.8783V38.6622H46.4231V39.9243C46.4231 40.5554 46.6813 40.9281 47.3697 40.9281C47.6278 40.9281 47.9145 40.8421 48.1154 40.7274L47.9432 40.2111C47.7712 40.3258 47.5705 40.3545 47.427 40.3545C47.1402 40.3545 47.0255 40.1825 47.0255 39.8956V38.6622H48.0006V38.1174ZM53.106 38.0599C52.7619 38.0599 52.5324 38.2321 52.389 38.4615V38.1174H51.7867V40.8708H52.389V39.322C52.389 38.8631 52.5897 38.605 52.9625 38.605C53.0773 38.605 53.2207 38.6337 53.3354 38.6623L53.5075 38.0888C53.3928 38.06 53.2207 38.06 53.106 38.06M45.3907 38.3469C45.1037 38.1461 44.7023 38.0601 44.272 38.0601C43.5837 38.0601 43.1249 38.4043 43.1249 38.9492C43.1249 39.4082 43.469 39.6663 44.0713 39.7524L44.3581 39.7811C44.6736 39.8383 44.8457 39.9244 44.8457 40.0679C44.8457 40.2686 44.6163 40.412 44.2147 40.412C43.8132 40.412 43.4976 40.2686 43.2968 40.1252L43.01 40.5841C43.3256 40.8135 43.7558 40.9282 44.1859 40.9282C44.989 40.9282 45.448 40.5555 45.448 40.0391C45.448 39.5515 45.0751 39.2934 44.5014 39.2074L44.2147 39.1787C43.9565 39.1499 43.7558 39.0927 43.7558 38.9206C43.7558 38.7198 43.9565 38.6051 44.272 38.6051C44.6163 38.6051 44.9604 38.7484 45.1325 38.8345L45.3907 38.3469ZM61.395 38.0601C61.0508 38.0601 60.8213 38.2322 60.6779 38.4616V38.1175H60.0756V40.8709H60.6779V39.3221C60.6779 38.8633 60.8787 38.6051 61.2514 38.6051C61.3663 38.6051 61.5097 38.6338 61.6245 38.6625L61.7965 38.0889C61.6818 38.0601 61.5098 38.0601 61.395 38.0601ZM53.7083 39.4942C53.7083 40.3259 54.2819 40.9282 55.1711 40.9282C55.5726 40.9282 55.8594 40.8423 56.1462 40.6128L55.8594 40.1252C55.63 40.2973 55.4005 40.3833 55.1424 40.3833C54.6548 40.3833 54.3106 40.0391 54.3106 39.4942C54.3106 38.978 54.6548 38.6337 55.1424 38.6051C55.4005 38.6051 55.63 38.6911 55.8594 38.8633L56.1462 38.3757C55.8594 38.1461 55.5726 38.0601 55.1711 38.0601C54.2819 38.0601 53.7083 38.6625 53.7083 39.4942ZM59.2726 39.4942V38.1175H58.6703V38.4616C58.4694 38.2036 58.1827 38.0601 57.8098 38.0601C57.0354 38.0601 56.4331 38.6625 56.4331 39.4942C56.4331 40.3259 57.0354 40.9282 57.8098 40.9282C58.2113 40.9282 58.4982 40.7849 58.6703 40.5267V40.8709H59.2726V39.4942ZM57.064 39.4942C57.064 39.0066 57.3795 38.6051 57.8957 38.6051C58.3833 38.6051 58.7276 38.978 58.7276 39.4942C58.7276 39.9818 58.3833 40.3833 57.8957 40.3833C57.3795 40.3545 57.064 39.9818 57.064 39.4942ZM49.865 38.0601C49.0619 38.0601 48.4882 38.6337 48.4882 39.4942C48.4882 40.3547 49.0618 40.9282 49.8936 40.9282C50.2951 40.9282 50.6968 40.8135 51.0123 40.5555L50.7254 40.1252C50.4959 40.2973 50.2092 40.412 49.9224 40.412C49.5495 40.412 49.1766 40.24 49.0905 39.7522H51.127V39.5229C51.1557 38.6337 50.6395 38.0601 49.865 38.0601ZM49.8649 38.5764C50.2376 38.5764 50.4959 38.8059 50.5532 39.2362H49.1191C49.1765 38.8633 49.4346 38.5764 49.8649 38.5764ZM64.808 39.4942V37.0276H64.2056V38.4616C64.0048 38.2036 63.7181 38.0601 63.3452 38.0601C62.5708 38.0601 61.9685 38.6625 61.9685 39.4942C61.9685 40.3259 62.5708 40.9282 63.3452 40.9282C63.7468 40.9282 64.0336 40.7849 64.2056 40.5267V40.8709H64.808V39.4942ZM62.5995 39.4942C62.5995 39.0066 62.9149 38.6051 63.4313 38.6051C63.9189 38.6051 64.263 38.978 64.263 39.4942C64.263 39.9818 63.9189 40.3833 63.4313 40.3833C62.9149 40.3545 62.5995 39.9818 62.5995 39.4942ZM42.4649 39.4942V38.1175H41.8626V38.4616C41.6618 38.2036 41.375 38.0601 41.0022 38.0601C40.2278 38.0601 39.6255 38.6625 39.6255 39.4942C39.6255 40.3259 40.2278 40.9282 41.0022 40.9282C41.4038 40.9282 41.6906 40.7849 41.8626 40.5267V40.8709H42.4649V39.4942ZM40.2278 39.4942C40.2278 39.0066 40.5433 38.6051 41.0595 38.6051C41.5471 38.6051 41.8914 38.978 41.8914 39.4942C41.8914 39.9818 41.5471 40.3833 41.0595 40.3833C40.5433 40.3545 40.2278 39.9818 40.2278 39.4942Z" fill="black"/>
<path d="M45.1895 17.2085H54.2241V33.4423H45.1895V17.2085Z" fill="#FF5F00"/>
<path d="M45.7634 25.3254C45.7634 22.0271 47.3122 19.1015 49.6927 17.2084C47.9432 15.8317 45.7348 15 43.3255 15C37.6177 15 33 19.6177 33 25.3254C33 31.033 37.6177 35.6508 43.3254 35.6508C45.7346 35.6508 47.9431 34.8191 49.6927 33.4422C47.3122 31.5779 45.7634 28.6237 45.7634 25.3254Z" fill="#EB001B"/>
<path d="M66.4143 25.3254C66.4143 31.033 61.7967 35.6508 56.0889 35.6508C53.6797 35.6508 51.4713 34.8191 49.7217 33.4422C52.1309 31.5493 53.6511 28.6237 53.6511 25.3254C53.6511 22.0271 52.1022 19.1015 49.7217 17.2084C51.4711 15.8317 53.6797 15 56.0889 15C61.7967 15 66.4143 19.6464 66.4143 25.3254Z" fill="#F79E1B"/>
</g>
<defs>
<clipPath id="clip0_166_1244">
<rect width="33.4472" height="26" fill="white" transform="translate(33 15)"/>
</clipPath>
</defs>
</svg>
