<svg width="36" height="36" viewBox="0 0 36 36" fill="none" xmlns="http://www.w3.org/2000/svg">
<rect width="36" height="36" rx="6" transform="matrix(-1 0 0 1 36 0)" fill="#E3F1E8"/>
<path fill-rule="evenodd" clip-rule="evenodd" d="M23.8926 23.8916C21.3458 26.4387 17.5746 26.989 14.4885 25.5618C14.0329 25.3783 13.6594 25.2301 13.3043 25.2301C12.3152 25.2359 11.0841 26.195 10.4443 25.5559C9.80447 24.916 10.7642 23.6839 10.7642 22.6889C10.7642 22.3337 10.6219 21.9669 10.4384 21.5104C9.01053 18.4248 9.56159 14.6523 12.1084 12.1061C15.3595 8.85377 20.6415 8.85377 23.8926 12.1052C27.1496 15.3626 27.1438 20.6402 23.8926 23.8916Z" stroke="#221E20" stroke-width="1.5" stroke-linecap="round" stroke-linejoin="round"/>
<path d="M21.2825 18.3442H21.29" stroke="#221E20" stroke-width="2" stroke-linecap="round" stroke-linejoin="round"/>
<path d="M17.9417 18.3442H17.9492" stroke="#221E20" stroke-width="2" stroke-linecap="round" stroke-linejoin="round"/>
<path d="M14.6009 18.3442H14.6084" stroke="#221E20" stroke-width="2" stroke-linecap="round" stroke-linejoin="round"/>
</svg>
