<svg width="100" height="56" viewBox="0 0 100 56" fill="none" xmlns="http://www.w3.org/2000/svg">
<rect width="100" height="56" rx="7" fill="#EBEBEB"/>
<path d="M57.6965 17.0238C56.4969 15.6565 54.3284 15.0703 51.5542 15.0703H43.5028C43.2284 15.0703 42.9629 15.1682 42.7541 15.3465C42.5454 15.5247 42.4071 15.7716 42.3641 16.0426L39.0116 37.3047C38.945 37.724 39.2696 38.1036 39.6946 38.1036H44.6653L45.9136 30.1856L45.8749 30.4336C45.9638 29.8739 46.4425 29.4611 47.0093 29.4611H49.3713C54.0116 29.4611 57.6449 27.5763 58.7063 22.1241C58.7378 21.9629 58.7651 21.8059 58.7887 21.6526C58.6547 21.5817 58.6547 21.5817 58.7887 21.6526C59.1047 19.6374 58.7865 18.2657 57.6965 17.0238Z" fill="#27346A"/>
<path d="M47.8156 20.9267C47.9514 20.862 48.1001 20.8284 48.2506 20.8285H54.5627C55.3102 20.8285 56.0074 20.8772 56.6445 20.9797C56.8227 21.0081 57.0001 21.0421 57.1762 21.0815C57.4259 21.1366 57.6728 21.204 57.9158 21.2835C58.229 21.3881 58.5207 21.51 58.7888 21.6526C59.1047 19.6367 58.7865 18.2657 57.6965 17.0238C56.4962 15.6565 54.3284 15.0703 51.5542 15.0703H43.5021C42.9352 15.0703 42.4529 15.483 42.3641 16.0426L39.0116 37.3039C38.945 37.7239 39.2696 38.103 39.6939 38.103H44.6653L47.2552 21.6791C47.2806 21.5177 47.345 21.3649 47.4426 21.2338C47.5402 21.1027 47.6682 20.9973 47.8156 20.9267Z" fill="#27346A"/>
<path d="M58.7064 22.1241C57.645 27.5755 54.0117 29.461 49.3714 29.461H47.0087C46.4419 29.461 45.9631 29.8738 45.875 30.4335L44.322 40.2787C44.264 40.6456 44.5477 40.9781 44.919 40.9781H49.1091C49.3491 40.978 49.5813 40.8923 49.7637 40.7364C49.9462 40.5805 50.0671 40.3646 50.1046 40.1275L50.1454 39.914L50.9351 34.9089L50.986 34.6323C51.0235 34.3952 51.1444 34.1793 51.3268 34.0234C51.5093 33.8675 51.7414 33.7818 51.9814 33.7817H52.6085C56.6675 33.7817 59.8458 32.1327 60.7746 27.3635C61.1623 25.3704 60.9617 23.7064 59.9361 22.5376C59.6251 22.1836 59.2388 21.8912 58.7888 21.6526C58.7644 21.8067 58.738 21.9629 58.7064 22.1241Z" fill="#2790C3"/>
<path d="M57.6783 21.2097C57.5129 21.1614 57.3458 21.1186 57.1775 21.0814C57.0012 21.0426 56.8239 21.0089 56.6457 20.9803C56.0079 20.8771 55.3112 20.8284 54.5631 20.8284H48.2517C48.1011 20.828 47.9523 20.8619 47.8167 20.9273C47.6691 20.9977 47.541 21.1031 47.4433 21.2342C47.3457 21.3653 47.2814 21.5182 47.2562 21.6797L45.9147 30.1855L45.876 30.4335C45.9642 29.8738 46.4429 29.461 47.0098 29.461H49.3725C54.0128 29.461 57.6461 27.5762 58.7074 22.1241C58.739 21.9628 58.7655 21.8066 58.7899 21.6525C58.5211 21.5107 58.2302 21.3881 57.9169 21.2841C57.8379 21.2579 57.7583 21.2331 57.6784 21.2097" fill="#1F264F"/>
</svg>
