<svg width="80" height="80" viewBox="0 0 80 80" fill="none" xmlns="http://www.w3.org/2000/svg">
<path d="M56.6667 66.6667C60.3486 66.6667 63.3333 63.6819 63.3333 60C63.3333 56.3181 60.3486 53.3334 56.6667 53.3334C52.9848 53.3334 50 56.3181 50 60C50 63.6819 52.9848 66.6667 56.6667 66.6667Z" stroke="#249531" stroke-width="5" stroke-linecap="round" stroke-linejoin="round"/>
<path d="M23.3332 66.6667C27.0151 66.6667 29.9998 63.6819 29.9998 60C29.9998 56.3181 27.0151 53.3334 23.3332 53.3334C19.6513 53.3334 16.6665 56.3181 16.6665 60C16.6665 63.6819 19.6513 66.6667 23.3332 66.6667Z" stroke="#249531" stroke-width="5" stroke-linecap="round" stroke-linejoin="round"/>
<path d="M16.6665 59.9067C13.0098 59.7267 10.7332 59.1834 9.1065 57.56C7.47984 55.9367 6.93984 53.6567 6.75984 50M29.9998 60H49.9998M63.3332 59.9067C66.9898 59.7267 69.2665 59.1834 70.8932 57.56C73.3332 55.1167 73.3332 51.19 73.3332 43.3334V36.6667H57.6665C55.1832 36.6667 53.9432 36.6667 52.9398 36.34C51.9393 36.0149 51.03 35.4576 50.2861 34.7138C49.5422 33.9699 48.985 33.0605 48.6598 32.06C48.3332 31.0567 48.3332 29.8167 48.3332 27.3334C48.3332 23.61 48.3332 21.75 47.8432 20.2434C47.3555 18.7426 46.5196 17.3786 45.4038 16.2628C44.288 15.147 42.9239 14.311 41.4232 13.8234C39.9165 13.3334 38.0565 13.3334 34.3332 13.3334H6.6665M6.6665 26.6667H26.6665M6.6665 36.6667H19.9998" stroke="#249531" stroke-width="5" stroke-linecap="round" stroke-linejoin="round"/>
<path d="M48.3335 20H54.4035C59.2568 20 61.6802 20 63.6535 21.18C65.6302 22.3567 66.7802 24.4933 69.0802 28.7667L73.3335 36.6667" stroke="#249531" stroke-width="5" stroke-linecap="round" stroke-linejoin="round"/>
</svg>
