<svg width="48" height="27" viewBox="0 0 48 27" fill="none" xmlns="http://www.w3.org/2000/svg">
<rect x="0.5" y="0.5" width="47" height="26" rx="13" stroke="#FFD12D"/>
<path d="M32.9728 18.1077C32.4414 18.1077 31.9208 18.0323 31.411 17.8815C30.9084 17.7235 30.4847 17.5081 30.14 17.2353L30.7324 16.1474C31.0053 16.37 31.3356 16.5495 31.7234 16.6859C32.1183 16.8224 32.5276 16.8906 32.9513 16.8906C33.4467 16.8906 33.8345 16.7865 34.1145 16.5782C34.4018 16.37 34.5454 16.0899 34.5454 15.7381C34.5454 15.5011 34.4843 15.2929 34.3623 15.1134C34.2474 14.9338 34.0391 14.7974 33.7376 14.7041C33.4431 14.6107 33.0374 14.564 32.5204 14.564H30.7001L31.0879 10.4603H35.5148V11.6343H31.6049L32.3373 10.9665L32.0465 14.0363L31.3141 13.3792H32.8328C33.5796 13.3792 34.1792 13.4798 34.6315 13.6808C35.0911 13.8747 35.425 14.1476 35.6333 14.4994C35.8487 14.8441 35.9564 15.239 35.9564 15.6842C35.9564 16.1222 35.8487 16.5244 35.6333 16.8906C35.4178 17.2568 35.0875 17.5512 34.6423 17.7738C34.2043 17.9964 33.6478 18.1077 32.9728 18.1077Z" fill="#FFD12D"/>
<path d="M19.0001 17.7066L15.8876 19.5816C15.7501 19.6691 15.6064 19.7066 15.4564 19.6941C15.3064 19.6816 15.1751 19.6316 15.0626 19.5441C14.9501 19.4566 14.8626 19.3474 14.8001 19.2164C14.7376 19.0849 14.7251 18.9379 14.7626 18.7754L15.5876 15.2316L12.8314 12.8504C12.7064 12.7379 12.6284 12.6096 12.5974 12.4656C12.5659 12.3221 12.5751 12.1816 12.6251 12.0441C12.6751 11.9066 12.7501 11.7941 12.8501 11.7066C12.9501 11.6191 13.0876 11.5629 13.2626 11.5379L16.9001 11.2191L18.3064 7.88164C18.3689 7.73164 18.4659 7.61914 18.5974 7.54414C18.7284 7.46914 18.8626 7.43164 19.0001 7.43164C19.1376 7.43164 19.2721 7.46914 19.4036 7.54414C19.5346 7.61914 19.6314 7.73164 19.6939 7.88164L21.1001 11.2191L24.7376 11.5379C24.9126 11.5629 25.0501 11.6191 25.1501 11.7066C25.2501 11.7941 25.3251 11.9066 25.3751 12.0441C25.4251 12.1816 25.4346 12.3221 25.4036 12.4656C25.3721 12.6096 25.2939 12.7379 25.1689 12.8504L22.4126 15.2316L23.2376 18.7754C23.2751 18.9379 23.2626 19.0849 23.2001 19.2164C23.1376 19.3474 23.0501 19.4566 22.9376 19.5441C22.8251 19.6316 22.6939 19.6816 22.5439 19.6941C22.3939 19.7066 22.2501 19.6691 22.1126 19.5816L19.0001 17.7066Z" fill="#FFD12D"/>
</svg>
