<svg width="40" height="40" viewBox="0 0 40 40" fill="none" xmlns="http://www.w3.org/2000/svg">
<rect width="40" height="40" rx="20" fill="#E3F1E8"/>
<path fill-rule="evenodd" clip-rule="evenodd" d="M20.9202 13.4807L22.4431 16.523C22.5923 16.8216 22.8804 17.0287 23.2145 17.0767L26.6211 17.567C27.4628 17.6885 27.7977 18.7086 27.1886 19.2931L24.7252 21.6602C24.4831 21.893 24.3729 22.2276 24.4301 22.5562L25.0115 25.898C25.1547 26.7247 24.2748 27.3554 23.5225 26.9643L20.4777 25.3854C20.1792 25.2305 19.8217 25.2305 19.5223 25.3854L16.4775 26.9643C15.7252 27.3554 14.8453 26.7247 14.9894 25.898L15.5699 22.5562C15.6271 22.2276 15.5169 21.893 15.2748 21.6602L12.8114 19.2931C12.2023 18.7086 12.5372 17.6885 13.3789 17.567L16.7855 17.0767C17.1196 17.0287 17.4086 16.8216 17.5578 16.523L19.0798 13.4807C19.4564 12.7284 20.5436 12.7284 20.9202 13.4807Z" stroke="#249531" stroke-width="1.5" stroke-linecap="round" stroke-linejoin="round"/>
</svg>
