<svg width="17" height="17" viewBox="0 0 17 17" fill="none" xmlns="http://www.w3.org/2000/svg">
<g clip-path="url(#clip0_532_3062)">
<mask id="mask0_532_3062" style="mask-type:luminance" maskUnits="userSpaceOnUse" x="0" y="0" width="17" height="17">
<path d="M8.49984 15.5837C9.43022 15.5849 10.3517 15.4022 11.2112 15.0462C12.0708 14.6901 12.8515 14.1677 13.5085 13.509C14.1672 12.852 14.6896 12.0712 15.0457 11.2117C15.4017 10.3521 15.5844 9.4307 15.5832 8.50033C15.5844 7.56996 15.4017 6.64853 15.0456 5.78898C14.6896 4.92944 14.1672 4.14872 13.5085 3.49171C12.8515 2.83297 12.0708 2.31056 11.2112 1.95451C10.3517 1.59846 9.43022 1.41579 8.49984 1.417C7.56947 1.41581 6.64804 1.59849 5.7885 1.95454C4.92895 2.31059 4.14824 2.83298 3.49122 3.49171C2.83249 4.14872 2.3101 4.92944 1.95405 5.78898C1.598 6.64853 1.41532 7.56996 1.41651 8.50033C1.4153 9.4307 1.59798 10.3521 1.95402 11.2117C2.31007 12.0712 2.83248 12.852 3.49122 13.509C4.14824 14.1677 4.92895 14.6901 5.7885 15.0461C6.64804 15.4022 7.56947 15.5849 8.49984 15.5837Z" fill="white" stroke="white" stroke-linejoin="round"/>
<path d="M5.6665 8.5L7.7915 10.625L12.0415 6.375" stroke="black" stroke-linecap="round" stroke-linejoin="round"/>
</mask>
<g mask="url(#mask0_532_3062)">
<path d="M0 0H17V17H0V0Z" fill="#249531"/>
</g>
</g>
<defs>
<clipPath id="clip0_532_3062">
<rect width="17" height="17" fill="white"/>
</clipPath>
</defs>
</svg>
