<svg width="100" height="56" viewBox="0 0 100 56" fill="none" xmlns="http://www.w3.org/2000/svg">
<rect width="100" height="56" rx="7" fill="#A8E6CF"/>
<g clip-path="url(#clip0_166_1241)">
<path d="M51.4738 23.2786C51.428 26.8861 54.6887 28.899 57.1449 30.096C59.6685 31.3239 60.5161 32.1114 60.5061 33.2097C60.4873 34.8903 58.4931 35.6321 56.6271 35.6609C53.3714 35.7113 51.4785 34.7819 49.9736 34.079L48.8008 39.5669C50.3106 40.2626 53.1064 40.8694 56.0056 40.896C62.811 40.896 67.2633 37.5367 67.2874 32.3282C67.314 25.7179 58.1442 25.3521 58.2068 22.3975C58.2284 21.5016 59.0833 20.5455 60.9566 20.3024C61.8838 20.1796 64.4434 20.0857 67.3453 21.422L68.4843 16.1124C66.9237 15.5441 64.918 15 62.4207 15C56.0153 15 51.5101 18.4051 51.4738 23.2786ZM79.4288 15.4573C78.1861 15.4573 77.1389 16.1822 76.6715 17.2946L66.9503 40.506H73.7507L75.104 36.7661H83.414L84.199 40.506H90.1928L84.9624 15.4573H79.4288ZM80.3801 22.2239L82.3427 31.63H76.9679L80.3801 22.2239ZM43.2286 15.4577L37.8682 40.5057H44.3485L49.7064 15.457L43.2286 15.4577ZM33.6421 15.4577L26.8972 32.5065L24.1687 18.01C23.8486 16.3918 22.5843 15.4573 21.1803 15.4573H10.1544L10 16.1847C12.2636 16.6759 14.8354 17.4681 16.3935 18.3158C17.347 18.8336 17.6189 19.2862 17.9322 20.5167L23.0999 40.506H29.948L40.4469 15.4573L33.6421 15.4577Z" fill="url(#paint0_linear_166_1241)"/>
</g>
<defs>
<linearGradient id="paint0_linear_166_1241" x1="3696.78" y1="92.8434" x2="3771.74" y2="-2566.71" gradientUnits="userSpaceOnUse">
<stop stop-color="#222357"/>
<stop offset="1" stop-color="#254AA5"/>
</linearGradient>
<clipPath id="clip0_166_1241">
<rect width="80.1928" height="26" fill="white" transform="translate(10 15)"/>
</clipPath>
</defs>
</svg>
